<mxfile host="Electron" modified="2024-05-16T15:00:41.032Z" agent="Mozilla/5.0 (X11; Linux x86_64) AppleWebKit/537.36 (KHTML, like Gecko) draw.io/24.2.5 Chrome/120.0.6099.109 Electron/28.1.0 Safari/537.36" etag="r1HXziXKMtZSAUz3U5tD" version="24.2.5" type="device">
  <diagram name="第 1 页" id="pkB_VXY0mXBjEQYdxfJV">
    <mxGraphModel dx="1903" dy="1154" grid="1" gridSize="10" guides="1" tooltips="1" connect="1" arrows="1" fold="1" page="1" pageScale="1" pageWidth="1100" pageHeight="850" math="0" shadow="0">
      <root>
        <mxCell id="0" />
        <mxCell id="1" parent="0" />
        <UserObject label="&lt;span style=&quot;forced-color-adjust: none; color: rgb(0, 0, 0); font-family: Helvetica; font-size: 12px; font-style: normal; font-variant-ligatures: normal; font-variant-caps: normal; font-weight: 400; letter-spacing: normal; orphans: 2; text-align: left; text-indent: 0px; text-transform: none; widows: 2; word-spacing: 0px; -webkit-text-stroke-width: 0px; white-space: normal; text-decoration-thickness: initial; text-decoration-style: initial; text-decoration-color: initial;&quot;&gt;&lt;span style=&quot;forced-color-adjust: none; font-family: &amp;quot;Droid Sans Mono&amp;quot;, &amp;quot;monospace&amp;quot;, monospace; font-size: 14px; white-space: pre;&quot;&gt;Qwen2RMSNorm():&lt;/span&gt;&lt;span style=&quot;forced-color-adjust: none; font-family: &amp;quot;Droid Sans Mono&amp;quot;, &amp;quot;monospace&amp;quot;, monospace; font-size: 14px; white-space: pre;&quot;&gt;Copied from transformers.models.llama.modeling_llama.LlamaRMSNorm with Llama-&amp;gt;Qwen2&lt;/span&gt;&lt;/span&gt;&lt;div style=&quot;forced-color-adjust: none; color: rgb(0, 0, 0); font-family: Helvetica; font-size: 12px; font-style: normal; font-variant-ligatures: normal; font-variant-caps: normal; font-weight: 400; letter-spacing: normal; orphans: 2; text-align: left; text-indent: 0px; text-transform: none; widows: 2; word-spacing: 0px; -webkit-text-stroke-width: 0px; white-space: normal; text-decoration-thickness: initial; text-decoration-style: initial; text-decoration-color: initial;&quot;&gt;&lt;span style=&quot;forced-color-adjust: none;&quot;&gt;&lt;span style=&quot;forced-color-adjust: none; font-family: &amp;quot;Droid Sans Mono&amp;quot;, &amp;quot;monospace&amp;quot;, monospace; font-size: 14px; white-space: pre;&quot;&gt;Qwen2MLP(): &lt;/span&gt;&lt;span style=&quot;forced-color-adjust: none; font-family: &amp;quot;Droid Sans Mono&amp;quot;, &amp;quot;monospace&amp;quot;, monospace; font-size: 14px; white-space: pre;&quot;&gt;Copied from transformers.models.mistral.modeling_mistral.MistralMLP with Mistral-&amp;gt;Qwen2&lt;/span&gt;&lt;/span&gt;&lt;/div&gt;&lt;div style=&quot;forced-color-adjust: none; color: rgb(0, 0, 0); font-family: Helvetica; font-size: 12px; font-style: normal; font-variant-ligatures: normal; font-variant-caps: normal; font-weight: 400; letter-spacing: normal; orphans: 2; text-align: left; text-indent: 0px; text-transform: none; widows: 2; word-spacing: 0px; -webkit-text-stroke-width: 0px; white-space: normal; text-decoration-thickness: initial; text-decoration-style: initial; text-decoration-color: initial;&quot;&gt;&lt;div style=&quot;forced-color-adjust: none; font-family: &amp;quot;Droid Sans Mono&amp;quot;, &amp;quot;monospace&amp;quot;, monospace; font-size: 14px; line-height: 19px; white-space: pre;&quot;&gt;&lt;span style=&quot;forced-color-adjust: none;&quot;&gt;Qwen2RotaryEmbedding(): Copied from transformers.models.mistral.modeling_mistral.MistralRotaryEmbedding with Mistral-&amp;gt;Qwen2&lt;/span&gt;&lt;/div&gt;&lt;/div&gt;&lt;div style=&quot;forced-color-adjust: none; color: rgb(0, 0, 0); font-style: normal; font-variant-ligatures: normal; font-variant-caps: normal; font-weight: 400; letter-spacing: normal; orphans: 2; text-align: left; text-indent: 0px; text-transform: none; widows: 2; word-spacing: 0px; -webkit-text-stroke-width: 0px; text-decoration-thickness: initial; text-decoration-style: initial; text-decoration-color: initial; font-family: &amp;quot;Droid Sans Mono&amp;quot;, &amp;quot;monospace&amp;quot;, monospace; font-size: 14px; line-height: 19px; white-space: pre;&quot;&gt;&lt;div style=&quot;forced-color-adjust: none; line-height: 19px;&quot;&gt;&lt;span style=&quot;forced-color-adjust: none;&quot;&gt;rotate_half: Copied from transformers.models.llama.modeling_llama.rotate_half&lt;/span&gt;&lt;/div&gt;&lt;div style=&quot;forced-color-adjust: none; line-height: 19px;&quot;&gt;&lt;div style=&quot;forced-color-adjust: none; line-height: 19px;&quot;&gt;&lt;span style=&quot;forced-color-adjust: none;&quot;&gt;apply_rotary_pos_emb: Copied from transformers.models.mistral.modeling_mistral.apply_rotary_pos_emb&lt;/span&gt;&lt;/div&gt;&lt;div style=&quot;forced-color-adjust: none; line-height: 19px;&quot;&gt;&lt;span style=&quot;forced-color-adjust: none;&quot;&gt;&lt;div style=&quot;forced-color-adjust: none; line-height: 19px;&quot;&gt;&lt;span style=&quot;forced-color-adjust: none;&quot;&gt;repeat_kv: &lt;/span&gt;&lt;span style=&quot;forced-color-adjust: none;&quot;&gt;Copied from transformers.models.llama.modeling_llama.repeat_kv&lt;/span&gt;&lt;/div&gt;&lt;/span&gt;&lt;/div&gt;&lt;/div&gt;&lt;/div&gt;" link="&lt;span style=&quot;forced-color-adjust: none; color: rgb(0, 0, 0); font-family: Helvetica; font-size: 12px; font-style: normal; font-variant-ligatures: normal; font-variant-caps: normal; font-weight: 400; letter-spacing: normal; orphans: 2; text-align: left; text-indent: 0px; text-transform: none; widows: 2; word-spacing: 0px; -webkit-text-stroke-width: 0px; white-space: normal; background-color: rgb(251, 251, 251); text-decoration-thickness: initial; text-decoration-style: initial; text-decoration-color: initial;&quot;&gt;&lt;span style=&quot;forced-color-adjust: none; font-family: &amp;quot;Droid Sans Mono&amp;quot;, &amp;quot;monospace&amp;quot;, monospace; font-size: 14px; white-space: pre;&quot;&gt;Qwen2RMSNorm():&lt;/span&gt;&lt;span style=&quot;forced-color-adjust: none; font-family: &amp;quot;Droid Sans Mono&amp;quot;, &amp;quot;monospace&amp;quot;, monospace; font-size: 14px; white-space: pre;&quot;&gt;Copied from transformers.models.llama.modeling_llama.LlamaRMSNorm with Llama-&amp;gt;Qwen2&lt;/span&gt;&lt;/span&gt;&lt;div style=&quot;forced-color-adjust: none; color: rgb(0, 0, 0); font-family: Helvetica; font-size: 12px; font-style: normal; font-variant-ligatures: normal; font-variant-caps: normal; font-weight: 400; letter-spacing: normal; orphans: 2; text-align: left; text-indent: 0px; text-transform: none; widows: 2; word-spacing: 0px; -webkit-text-stroke-width: 0px; white-space: normal; background-color: rgb(251, 251, 251); text-decoration-thickness: initial; text-decoration-style: initial; text-decoration-color: initial;&quot;&gt;&lt;span style=&quot;forced-color-adjust: none;&quot;&gt;&lt;span style=&quot;forced-color-adjust: none; font-family: &amp;quot;Droid Sans Mono&amp;quot;, &amp;quot;monospace&amp;quot;, monospace; font-size: 14px; white-space: pre;&quot;&gt;Qwen2MLP(): &lt;/span&gt;&lt;span style=&quot;forced-color-adjust: none; font-family: &amp;quot;Droid Sans Mono&amp;quot;, &amp;quot;monospace&amp;quot;, monospace; font-size: 14px; white-space: pre;&quot;&gt;Copied from transformers.models.mistral.modeling_mistral.MistralMLP with Mistral-&amp;gt;Qwen2&lt;/span&gt;&lt;/span&gt;&lt;/div&gt;&lt;div style=&quot;forced-color-adjust: none; color: rgb(0, 0, 0); font-family: Helvetica; font-size: 12px; font-style: normal; font-variant-ligatures: normal; font-variant-caps: normal; font-weight: 400; letter-spacing: normal; orphans: 2; text-align: left; text-indent: 0px; text-transform: none; widows: 2; word-spacing: 0px; -webkit-text-stroke-width: 0px; white-space: normal; background-color: rgb(251, 251, 251); text-decoration-thickness: initial; text-decoration-style: initial; text-decoration-color: initial;&quot;&gt;&lt;div style=&quot;forced-color-adjust: none; font-family: &amp;quot;Droid Sans Mono&amp;quot;, &amp;quot;monospace&amp;quot;, monospace; font-size: 14px; line-height: 19px; white-space: pre;&quot;&gt;&lt;span style=&quot;forced-color-adjust: none;&quot;&gt;Qwen2RotaryEmbedding(): Copied from transformers.models.mistral.modeling_mistral.MistralRotaryEmbedding with Mistral-&amp;gt;Qwen2&lt;/span&gt;&lt;/div&gt;&lt;/div&gt;&lt;div style=&quot;forced-color-adjust: none; color: rgb(0, 0, 0); font-style: normal; font-variant-ligatures: normal; font-variant-caps: normal; font-weight: 400; letter-spacing: normal; orphans: 2; text-align: left; text-indent: 0px; text-transform: none; widows: 2; word-spacing: 0px; -webkit-text-stroke-width: 0px; background-color: rgb(251, 251, 251); text-decoration-thickness: initial; text-decoration-style: initial; text-decoration-color: initial; font-family: &amp;quot;Droid Sans Mono&amp;quot;, &amp;quot;monospace&amp;quot;, monospace; font-size: 14px; line-height: 19px; white-space: pre;&quot;&gt;&lt;div style=&quot;forced-color-adjust: none; line-height: 19px;&quot;&gt;&lt;span style=&quot;forced-color-adjust: none;&quot;&gt;rotate_half: Copied from transformers.models.llama.modeling_llama.rotate_half&lt;/span&gt;&lt;/div&gt;&lt;div style=&quot;forced-color-adjust: none; line-height: 19px;&quot;&gt;&lt;div style=&quot;forced-color-adjust: none; line-height: 19px;&quot;&gt;&lt;span style=&quot;forced-color-adjust: none;&quot;&gt;apply_rotary_pos_emb: Copied from transformers.models.mistral.modeling_mistral.apply_rotary_pos_emb&lt;/span&gt;&lt;/div&gt;&lt;div style=&quot;forced-color-adjust: none; line-height: 19px;&quot;&gt;&lt;span style=&quot;forced-color-adjust: none;&quot;&gt;&lt;div style=&quot;forced-color-adjust: none; line-height: 19px;&quot;&gt;&lt;span style=&quot;forced-color-adjust: none;&quot;&gt;repeat_kv: &lt;/span&gt;&lt;span style=&quot;forced-color-adjust: none;&quot;&gt;Copied from transformers.models.llama.modeling_llama.repeat_kv&lt;/span&gt;&lt;/div&gt;&lt;/span&gt;&lt;/div&gt;&lt;/div&gt;&lt;/div&gt;" id="jXiKxfPQ18ufbTapAJnl-1">
          <mxCell style="text;whiteSpace=wrap;html=1;" vertex="1" parent="1">
            <mxGeometry x="10" y="560.5" width="560" height="130" as="geometry" />
          </mxCell>
        </UserObject>
        <mxCell id="4iuUuKdbxl8gIZwIrT_o-54" value="" style="shape=curlyBracket;whiteSpace=wrap;html=1;rounded=1;labelPosition=left;verticalLabelPosition=middle;align=right;verticalAlign=middle;strokeColor=#36393d;strokeWidth=2;fontFamily=Helvetica;fontSize=11;fontColor=default;labelBackgroundColor=default;fillColor=#ffff88;" parent="1" vertex="1">
          <mxGeometry x="310" y="50" width="20" height="500" as="geometry" />
        </mxCell>
        <mxCell id="4iuUuKdbxl8gIZwIrT_o-1" value="&lt;div style=&quot;font-family: Consolas, &amp;quot;Courier New&amp;quot;, monospace; font-size: 14px; line-height: 19px; white-space: pre;&quot;&gt;&lt;div style=&quot;font-family: &amp;quot;Droid Sans Mono&amp;quot;, &amp;quot;monospace&amp;quot;, monospace; line-height: 19px;&quot;&gt;&lt;span style=&quot;&quot;&gt;Qwen2Model&lt;/span&gt;(&lt;span style=&quot;&quot;&gt;Qwen2PreTrainedModel&lt;/span&gt;)&lt;/div&gt;&lt;/div&gt;&lt;div style=&quot;font-family: Consolas, &amp;quot;Courier New&amp;quot;, monospace; font-size: 14px; line-height: 19px; white-space: pre;&quot;&gt;&lt;span style=&quot;&quot;&gt;forward(input_ids)&lt;/span&gt;&lt;/div&gt;" style="rounded=1;whiteSpace=wrap;html=1;fillColor=#cdeb8b;strokeColor=#36393d;fontColor=default;labelBackgroundColor=none;align=left;" parent="1" vertex="1">
          <mxGeometry x="40" y="280" width="270" height="40" as="geometry" />
        </mxCell>
        <mxCell id="4iuUuKdbxl8gIZwIrT_o-23" style="edgeStyle=orthogonalEdgeStyle;rounded=0;orthogonalLoop=1;jettySize=auto;html=1;entryX=0.5;entryY=0;entryDx=0;entryDy=0;strokeColor=default;strokeWidth=2;align=center;verticalAlign=middle;fontFamily=Helvetica;fontSize=11;fontColor=default;labelBackgroundColor=default;endArrow=classic;" parent="1" source="4iuUuKdbxl8gIZwIrT_o-2" target="4iuUuKdbxl8gIZwIrT_o-3" edge="1">
          <mxGeometry relative="1" as="geometry" />
        </mxCell>
        <mxCell id="qGL5-rrdzSUx7QEBZHQM-1" value="" style="edgeStyle=orthogonalEdgeStyle;rounded=0;orthogonalLoop=1;jettySize=auto;html=1;" parent="1" source="4iuUuKdbxl8gIZwIrT_o-2" target="4iuUuKdbxl8gIZwIrT_o-5" edge="1">
          <mxGeometry relative="1" as="geometry" />
        </mxCell>
        <mxCell id="4iuUuKdbxl8gIZwIrT_o-2" value="&lt;div style=&quot;font-family: Consolas, &amp;quot;Courier New&amp;quot;, monospace; font-weight: normal; font-size: 14px; line-height: 19px; white-space: pre;&quot;&gt;&lt;div&gt;&lt;span style=&quot;&quot;&gt;nn.Embedding(&lt;/span&gt;&lt;span style=&quot;background-color: initial;&quot;&gt;)&lt;/span&gt;&lt;/div&gt;&lt;/div&gt;" style="rounded=1;whiteSpace=wrap;html=1;labelBackgroundColor=none;fillColor=#cce5ff;strokeColor=#36393d;" parent="1" vertex="1">
          <mxGeometry x="380" y="40" width="120" height="30" as="geometry" />
        </mxCell>
        <mxCell id="4iuUuKdbxl8gIZwIrT_o-24" style="edgeStyle=orthogonalEdgeStyle;rounded=0;orthogonalLoop=1;jettySize=auto;html=1;entryX=0.5;entryY=0;entryDx=0;entryDy=0;strokeColor=default;strokeWidth=2;align=center;verticalAlign=middle;fontFamily=Helvetica;fontSize=11;fontColor=default;labelBackgroundColor=default;endArrow=classic;" parent="1" source="4iuUuKdbxl8gIZwIrT_o-3" target="4iuUuKdbxl8gIZwIrT_o-5" edge="1">
          <mxGeometry relative="1" as="geometry" />
        </mxCell>
        <mxCell id="4iuUuKdbxl8gIZwIrT_o-3" value="&lt;div style=&quot;font-family: Consolas, &amp;quot;Courier New&amp;quot;, monospace; font-weight: normal; font-size: 14px; line-height: 19px; white-space: pre;&quot;&gt;&lt;div&gt;&lt;span style=&quot;&quot;&gt;inputs_embeds&lt;/span&gt;&lt;/div&gt;&lt;/div&gt;" style="rounded=1;whiteSpace=wrap;html=1;labelBackgroundColor=none;fillColor=#ffff88;strokeColor=#36393d;strokeWidth=1;" parent="1" vertex="1">
          <mxGeometry x="380" y="110" width="120" height="30" as="geometry" />
        </mxCell>
        <mxCell id="4iuUuKdbxl8gIZwIrT_o-25" style="edgeStyle=orthogonalEdgeStyle;rounded=0;orthogonalLoop=1;jettySize=auto;html=1;entryX=0.5;entryY=0;entryDx=0;entryDy=0;strokeColor=default;strokeWidth=2;align=center;verticalAlign=middle;fontFamily=Helvetica;fontSize=11;fontColor=default;labelBackgroundColor=default;endArrow=classic;" parent="1" source="4iuUuKdbxl8gIZwIrT_o-5" target="4iuUuKdbxl8gIZwIrT_o-6" edge="1">
          <mxGeometry relative="1" as="geometry" />
        </mxCell>
        <mxCell id="4iuUuKdbxl8gIZwIrT_o-5" value="&lt;div style=&quot;font-family: Consolas, &amp;quot;Courier New&amp;quot;, monospace; font-size: 14px; line-height: 19px; white-space: pre;&quot;&gt;&lt;div style=&quot;line-height: 19px;&quot;&gt;get `position_ids` &lt;/div&gt;&lt;div style=&quot;line-height: 19px;&quot;&gt;and `&lt;span style=&quot;font-family: &amp;quot;Droid Sans Mono&amp;quot;, &amp;quot;monospace&amp;quot;, monospace;&quot;&gt;attention_mask&lt;/span&gt;&lt;span style=&quot;&quot;&gt;`&lt;/span&gt;&lt;br&gt;&lt;/div&gt;&lt;div style=&quot;line-height: 19px;&quot;&gt;and `past_key_values`&lt;/div&gt;&lt;/div&gt;" style="rounded=1;whiteSpace=wrap;html=1;fillColor=#cdeb8b;strokeColor=#36393d;fontColor=default;labelBackgroundColor=none;align=left;" parent="1" vertex="1">
          <mxGeometry x="350" y="180" width="180" height="60" as="geometry" />
        </mxCell>
        <mxCell id="4iuUuKdbxl8gIZwIrT_o-6" value="&lt;div style=&quot;font-family: Consolas, &amp;quot;Courier New&amp;quot;, monospace; font-size: 14px; line-height: 19px; white-space: pre;&quot;&gt;hidden_states = inputs_embeds&lt;/div&gt;" style="rounded=1;whiteSpace=wrap;html=1;fontFamily=Helvetica;fontSize=11;labelBackgroundColor=none;fillColor=#ffff88;strokeColor=#36393d;" parent="1" vertex="1">
          <mxGeometry x="317.5" y="281.5" width="245" height="30" as="geometry" />
        </mxCell>
        <mxCell id="4iuUuKdbxl8gIZwIrT_o-52" style="edgeStyle=orthogonalEdgeStyle;rounded=0;orthogonalLoop=1;jettySize=auto;html=1;entryX=0.5;entryY=0;entryDx=0;entryDy=0;strokeColor=default;strokeWidth=2;align=center;verticalAlign=middle;fontFamily=Helvetica;fontSize=11;fontColor=default;labelBackgroundColor=default;endArrow=classic;" parent="1" source="4iuUuKdbxl8gIZwIrT_o-7" target="4iuUuKdbxl8gIZwIrT_o-9" edge="1">
          <mxGeometry relative="1" as="geometry">
            <Array as="points">
              <mxPoint x="440" y="440" />
              <mxPoint x="440" y="440" />
            </Array>
          </mxGeometry>
        </mxCell>
        <mxCell id="4iuUuKdbxl8gIZwIrT_o-7" value="&lt;div style=&quot;font-size: 12px;&quot;&gt;&lt;div style=&quot;font-family: Consolas, &amp;quot;Courier New&amp;quot;, monospace; font-size: 14px; line-height: 19px; white-space: pre;&quot;&gt;&lt;div&gt;layer_outputs = &lt;span style=&quot;font-family: &amp;quot;Droid Sans Mono&amp;quot;, &amp;quot;monospace&amp;quot;, monospace;&quot;&gt;Qwen2DecoderLayer&lt;/span&gt;&lt;span style=&quot;&quot;&gt;(&lt;/span&gt;&lt;span style=&quot;&quot;&gt;config, layer_idx&lt;/span&gt;&lt;span style=&quot;&quot;&gt;)&lt;/span&gt;&lt;span style=&quot;&quot;&gt;.&lt;/span&gt;&lt;br&gt;&lt;/div&gt;&lt;div&gt;&lt;span style=&quot;&quot;&gt;forward(hidden_states,&lt;/span&gt;&lt;span style=&quot;font-family: &amp;quot;Droid Sans Mono&amp;quot;, &amp;quot;monospace&amp;quot;, monospace;&quot;&gt;attention_mask&lt;/span&gt;&lt;span style=&quot;&quot;&gt;,&lt;/span&gt;&lt;br&gt;&lt;/div&gt;&lt;div&gt;&lt;span style=&quot;&quot;&gt;position_ids,past_key_values,...&lt;/span&gt;&lt;span style=&quot;&quot;&gt;)&lt;/span&gt;&lt;/div&gt;&lt;div&gt;hidden_states = layer_outputs[&lt;span style=&quot;&quot;&gt;0&lt;/span&gt;]&lt;/div&gt;&lt;/div&gt;&lt;/div&gt;" style="rounded=1;whiteSpace=wrap;html=1;fontFamily=Courier New;fontSize=11;labelBackgroundColor=none;align=left;fillColor=#cce5ff;strokeColor=#36393d;fontColor=default;" parent="1" vertex="1">
          <mxGeometry x="317.5" y="352" width="450" height="80" as="geometry" />
        </mxCell>
        <mxCell id="4iuUuKdbxl8gIZwIrT_o-39" style="edgeStyle=orthogonalEdgeStyle;rounded=0;orthogonalLoop=1;jettySize=auto;html=1;entryX=0.5;entryY=0;entryDx=0;entryDy=0;strokeColor=default;strokeWidth=2;align=center;verticalAlign=middle;fontFamily=Helvetica;fontSize=11;fontColor=default;labelBackgroundColor=default;endArrow=classic;" parent="1" source="4iuUuKdbxl8gIZwIrT_o-9" target="4iuUuKdbxl8gIZwIrT_o-38" edge="1">
          <mxGeometry relative="1" as="geometry" />
        </mxCell>
        <mxCell id="4iuUuKdbxl8gIZwIrT_o-9" value="&lt;div style=&quot;font-family: Consolas, &amp;quot;Courier New&amp;quot;, monospace; font-size: 14px; line-height: 19px; white-space: pre;&quot;&gt;&lt;div style=&quot;line-height: 19px;&quot;&gt;&lt;span style=&quot;font-family: &amp;quot;Droid Sans Mono&amp;quot;, &amp;quot;monospace&amp;quot;, monospace;&quot;&gt;Qwen2RMSNorm&lt;/span&gt;&lt;span style=&quot;text-align: center;&quot;&gt;()&lt;/span&gt;&lt;br&gt;&lt;/div&gt;&lt;/div&gt;" style="rounded=1;whiteSpace=wrap;html=1;fillColor=#cce5ff;strokeColor=#36393d;labelBackgroundColor=none;align=left;fontColor=default;" parent="1" vertex="1">
          <mxGeometry x="380" y="470" width="120" height="30" as="geometry" />
        </mxCell>
        <mxCell id="4iuUuKdbxl8gIZwIrT_o-28" style="edgeStyle=orthogonalEdgeStyle;rounded=0;orthogonalLoop=1;jettySize=auto;html=1;entryX=0.5;entryY=0;entryDx=0;entryDy=0;strokeColor=default;strokeWidth=2;align=center;verticalAlign=middle;fontFamily=Helvetica;fontSize=11;fontColor=default;labelBackgroundColor=default;endArrow=classic;" parent="1" source="4iuUuKdbxl8gIZwIrT_o-11" target="4iuUuKdbxl8gIZwIrT_o-12" edge="1">
          <mxGeometry relative="1" as="geometry" />
        </mxCell>
        <mxCell id="sniHXeSOjYQfhwW7vpG6-1" style="edgeStyle=orthogonalEdgeStyle;rounded=0;orthogonalLoop=1;jettySize=auto;html=1;entryX=0;entryY=0.5;entryDx=0;entryDy=0;strokeWidth=2;" parent="1" source="4iuUuKdbxl8gIZwIrT_o-11" target="4iuUuKdbxl8gIZwIrT_o-15" edge="1">
          <mxGeometry relative="1" as="geometry">
            <Array as="points">
              <mxPoint x="790" y="264" />
              <mxPoint x="790" y="464" />
            </Array>
          </mxGeometry>
        </mxCell>
        <mxCell id="4iuUuKdbxl8gIZwIrT_o-11" value="&lt;div style=&quot;font-family: Consolas, &amp;quot;Courier New&amp;quot;, monospace; font-weight: normal; font-size: 14px; line-height: 19px; white-space: pre;&quot;&gt;&lt;div style=&quot;line-height: 19px;&quot;&gt;hidden_states&lt;/div&gt;&lt;/div&gt;" style="rounded=1;whiteSpace=wrap;html=1;labelBackgroundColor=none;fillColor=#ffff88;strokeColor=#36393d;fontColor=default;" parent="1" vertex="1">
          <mxGeometry x="801" y="248.5" width="120" height="30" as="geometry" />
        </mxCell>
        <mxCell id="4iuUuKdbxl8gIZwIrT_o-29" style="edgeStyle=orthogonalEdgeStyle;rounded=0;orthogonalLoop=1;jettySize=auto;html=1;entryX=0.5;entryY=0;entryDx=0;entryDy=0;strokeColor=default;strokeWidth=2;align=center;verticalAlign=middle;fontFamily=Helvetica;fontSize=11;fontColor=default;labelBackgroundColor=default;endArrow=classic;" parent="1" source="4iuUuKdbxl8gIZwIrT_o-12" target="4iuUuKdbxl8gIZwIrT_o-13" edge="1">
          <mxGeometry relative="1" as="geometry" />
        </mxCell>
        <mxCell id="4iuUuKdbxl8gIZwIrT_o-12" value="&lt;div style=&quot;font-family: Consolas, &amp;quot;Courier New&amp;quot;, monospace; font-size: 14px; line-height: 19px; white-space: pre;&quot;&gt;Qwen2RMSNorm()&lt;br&gt;&lt;/div&gt;" style="rounded=1;whiteSpace=wrap;html=1;labelBackgroundColor=none;fillColor=#cce5ff;strokeColor=#36393d;fontColor=default;" parent="1" vertex="1">
          <mxGeometry x="801" y="318.5" width="120" height="30" as="geometry" />
        </mxCell>
        <mxCell id="4iuUuKdbxl8gIZwIrT_o-30" style="edgeStyle=orthogonalEdgeStyle;rounded=0;orthogonalLoop=1;jettySize=auto;html=1;entryX=0.5;entryY=0;entryDx=0;entryDy=0;strokeColor=default;strokeWidth=2;align=center;verticalAlign=middle;fontFamily=Helvetica;fontSize=11;fontColor=default;labelBackgroundColor=default;endArrow=classic;" parent="1" source="4iuUuKdbxl8gIZwIrT_o-13" target="4iuUuKdbxl8gIZwIrT_o-15" edge="1">
          <mxGeometry relative="1" as="geometry" />
        </mxCell>
        <mxCell id="4iuUuKdbxl8gIZwIrT_o-13" value="&lt;div style=&quot;font-family: Consolas, &amp;quot;Courier New&amp;quot;, monospace; font-size: 14px; line-height: 19px; white-space: pre;&quot;&gt;&lt;span style=&quot;&quot;&gt;Qwen2Attention&lt;/span&gt;()&lt;/div&gt;" style="rounded=1;whiteSpace=wrap;html=1;labelBackgroundColor=none;fillColor=#cce5ff;strokeColor=#36393d;fontColor=default;" parent="1" vertex="1">
          <mxGeometry x="792.79" y="383.5" width="135.25" height="30" as="geometry" />
        </mxCell>
        <mxCell id="sniHXeSOjYQfhwW7vpG6-2" style="edgeStyle=orthogonalEdgeStyle;rounded=0;orthogonalLoop=1;jettySize=auto;html=1;entryX=0;entryY=0.5;entryDx=0;entryDy=0;strokeWidth=2;shape=link;" parent="1" source="4iuUuKdbxl8gIZwIrT_o-15" target="4iuUuKdbxl8gIZwIrT_o-20" edge="1">
          <mxGeometry relative="1" as="geometry">
            <Array as="points">
              <mxPoint x="940" y="464" />
              <mxPoint x="940" y="264" />
            </Array>
          </mxGeometry>
        </mxCell>
        <mxCell id="4iuUuKdbxl8gIZwIrT_o-15" value="&lt;font style=&quot;font-size: 14px;&quot;&gt;+&lt;/font&gt;" style="ellipse;whiteSpace=wrap;html=1;aspect=fixed;rounded=1;strokeColor=default;align=center;verticalAlign=middle;fontFamily=Helvetica;fontSize=11;fontColor=default;labelBackgroundColor=none;fillColor=default;" parent="1" vertex="1">
          <mxGeometry x="846" y="448.5" width="30" height="30" as="geometry" />
        </mxCell>
        <mxCell id="4iuUuKdbxl8gIZwIrT_o-34" style="edgeStyle=orthogonalEdgeStyle;rounded=0;orthogonalLoop=1;jettySize=auto;html=1;entryX=0.5;entryY=0;entryDx=0;entryDy=0;strokeColor=default;strokeWidth=2;align=center;verticalAlign=middle;fontFamily=Helvetica;fontSize=11;fontColor=default;labelBackgroundColor=default;endArrow=classic;" parent="1" source="4iuUuKdbxl8gIZwIrT_o-16" target="4iuUuKdbxl8gIZwIrT_o-17" edge="1">
          <mxGeometry relative="1" as="geometry" />
        </mxCell>
        <mxCell id="4iuUuKdbxl8gIZwIrT_o-16" value="&lt;div style=&quot;font-family: Consolas, &amp;quot;Courier New&amp;quot;, monospace; font-size: 14px; line-height: 19px; white-space: pre;&quot;&gt;&lt;span style=&quot;&quot;&gt;Qwen2RMSNorm&lt;/span&gt;()&lt;br&gt;&lt;/div&gt;" style="rounded=1;whiteSpace=wrap;html=1;labelBackgroundColor=none;fillColor=#cce5ff;strokeColor=#36393d;fontColor=default;" parent="1" vertex="1">
          <mxGeometry x="956" y="317" width="120" height="30" as="geometry" />
        </mxCell>
        <mxCell id="4iuUuKdbxl8gIZwIrT_o-35" style="edgeStyle=orthogonalEdgeStyle;rounded=0;orthogonalLoop=1;jettySize=auto;html=1;entryX=0.5;entryY=0;entryDx=0;entryDy=0;strokeColor=default;strokeWidth=2;align=center;verticalAlign=middle;fontFamily=Helvetica;fontSize=11;fontColor=default;labelBackgroundColor=default;endArrow=classic;" parent="1" source="4iuUuKdbxl8gIZwIrT_o-17" target="4iuUuKdbxl8gIZwIrT_o-21" edge="1">
          <mxGeometry relative="1" as="geometry" />
        </mxCell>
        <mxCell id="4iuUuKdbxl8gIZwIrT_o-17" value="&lt;div style=&quot;font-family: Consolas, &amp;quot;Courier New&amp;quot;, monospace; font-size: 14px; line-height: 19px; white-space: pre;&quot;&gt;&lt;div style=&quot;font-family: &amp;quot;Droid Sans Mono&amp;quot;, &amp;quot;monospace&amp;quot;, monospace; line-height: 19px;&quot;&gt;&lt;span style=&quot;&quot;&gt;Qwen2MLP()&lt;/span&gt;&lt;/div&gt;&lt;/div&gt;" style="rounded=1;whiteSpace=wrap;html=1;labelBackgroundColor=none;fillColor=#cce5ff;strokeColor=#36393d;fontColor=default;" parent="1" vertex="1">
          <mxGeometry x="966" y="383.5" width="100" height="30" as="geometry" />
        </mxCell>
        <mxCell id="4iuUuKdbxl8gIZwIrT_o-33" style="edgeStyle=orthogonalEdgeStyle;rounded=0;orthogonalLoop=1;jettySize=auto;html=1;entryX=0.5;entryY=0;entryDx=0;entryDy=0;strokeColor=default;strokeWidth=2;align=center;verticalAlign=middle;fontFamily=Helvetica;fontSize=11;fontColor=default;labelBackgroundColor=default;endArrow=classic;" parent="1" source="4iuUuKdbxl8gIZwIrT_o-20" target="4iuUuKdbxl8gIZwIrT_o-16" edge="1">
          <mxGeometry relative="1" as="geometry" />
        </mxCell>
        <mxCell id="sniHXeSOjYQfhwW7vpG6-3" style="edgeStyle=orthogonalEdgeStyle;rounded=0;orthogonalLoop=1;jettySize=auto;html=1;entryX=1;entryY=0.5;entryDx=0;entryDy=0;strokeWidth=2;" parent="1" source="4iuUuKdbxl8gIZwIrT_o-20" target="4iuUuKdbxl8gIZwIrT_o-21" edge="1">
          <mxGeometry relative="1" as="geometry">
            <Array as="points">
              <mxPoint x="1090" y="264" />
              <mxPoint x="1090" y="464" />
            </Array>
          </mxGeometry>
        </mxCell>
        <mxCell id="4iuUuKdbxl8gIZwIrT_o-20" value="&lt;div style=&quot;font-family: Consolas, &amp;quot;Courier New&amp;quot;, monospace; font-weight: normal; font-size: 14px; line-height: 19px; white-space: pre;&quot;&gt;&lt;div style=&quot;line-height: 19px;&quot;&gt;hidden_states&lt;/div&gt;&lt;/div&gt;" style="rounded=1;whiteSpace=wrap;html=1;labelBackgroundColor=none;fillColor=#ffff88;strokeColor=#36393d;fontColor=default;" parent="1" vertex="1">
          <mxGeometry x="959" y="248.5" width="114" height="30" as="geometry" />
        </mxCell>
        <mxCell id="4iuUuKdbxl8gIZwIrT_o-43" style="edgeStyle=orthogonalEdgeStyle;rounded=0;orthogonalLoop=1;jettySize=auto;html=1;entryX=0.5;entryY=0;entryDx=0;entryDy=0;strokeColor=default;strokeWidth=2;align=center;verticalAlign=middle;fontFamily=Helvetica;fontSize=11;fontColor=default;labelBackgroundColor=default;endArrow=classic;" parent="1" source="4iuUuKdbxl8gIZwIrT_o-21" target="4iuUuKdbxl8gIZwIrT_o-42" edge="1">
          <mxGeometry relative="1" as="geometry" />
        </mxCell>
        <mxCell id="4iuUuKdbxl8gIZwIrT_o-21" value="&lt;font style=&quot;font-size: 14px;&quot;&gt;+&lt;/font&gt;" style="ellipse;whiteSpace=wrap;html=1;aspect=fixed;rounded=1;strokeColor=default;align=center;verticalAlign=middle;fontFamily=Helvetica;fontSize=11;fontColor=default;labelBackgroundColor=none;fillColor=default;" parent="1" vertex="1">
          <mxGeometry x="1001" y="448.5" width="30" height="30" as="geometry" />
        </mxCell>
        <mxCell id="4iuUuKdbxl8gIZwIrT_o-31" value="" style="shape=curlyBracket;whiteSpace=wrap;html=1;rounded=1;labelPosition=left;verticalLabelPosition=middle;align=right;verticalAlign=middle;strokeColor=#36393d;strokeWidth=2;fontFamily=Helvetica;fontSize=11;fontColor=default;labelBackgroundColor=default;fillColor=#ffff88;" parent="1" vertex="1">
          <mxGeometry x="767.5" y="248" width="20" height="250" as="geometry" />
        </mxCell>
        <mxCell id="4iuUuKdbxl8gIZwIrT_o-38" value="&lt;div style=&quot;font-family: Consolas, &amp;quot;Courier New&amp;quot;, monospace; font-weight: normal; font-size: 14px; line-height: 19px; white-space: pre;&quot;&gt;&lt;div style=&quot;line-height: 19px;&quot;&gt;return&lt;/div&gt;&lt;/div&gt;" style="rounded=1;whiteSpace=wrap;html=1;labelBackgroundColor=none;fillColor=#ffff88;strokeColor=#36393d;fontColor=default;" parent="1" vertex="1">
          <mxGeometry x="410" y="531" width="60" height="30" as="geometry" />
        </mxCell>
        <mxCell id="4iuUuKdbxl8gIZwIrT_o-40" value="&lt;font style=&quot;font-size: 21px;&quot;&gt;x&lt;/font&gt;" style="text;html=1;align=center;verticalAlign=middle;whiteSpace=wrap;rounded=0;fontFamily=Helvetica;fontSize=11;fontColor=default;labelBackgroundColor=none;" parent="1" vertex="1">
          <mxGeometry x="280" y="380" width="50" height="30" as="geometry" />
        </mxCell>
        <mxCell id="4iuUuKdbxl8gIZwIrT_o-42" value="&lt;div style=&quot;font-family: Consolas, &amp;quot;Courier New&amp;quot;, monospace; font-weight: normal; font-size: 14px; line-height: 19px; white-space: pre;&quot;&gt;&lt;div style=&quot;line-height: 19px;&quot;&gt;return &lt;/div&gt;&lt;div style=&quot;line-height: 19px;&quot;&gt;&lt;span style=&quot;&quot;&gt;(hidden_states,)&lt;/span&gt;&lt;/div&gt;&lt;/div&gt;" style="rounded=1;whiteSpace=wrap;html=1;labelBackgroundColor=none;fillColor=#ffff88;strokeColor=#36393d;fontColor=default;align=left;" parent="1" vertex="1">
          <mxGeometry x="947.25" y="515.5" width="137.49" height="45" as="geometry" />
        </mxCell>
        <mxCell id="4iuUuKdbxl8gIZwIrT_o-8" value="&lt;div style=&quot;font-family: Consolas, &amp;quot;Courier New&amp;quot;, monospace; font-size: 14px; line-height: 19px; white-space: pre;&quot;&gt;num_hidden_layers&lt;/div&gt;" style="rounded=1;whiteSpace=wrap;html=1;strokeColor=default;align=center;verticalAlign=middle;fontFamily=Helvetica;fontSize=11;fontColor=default;labelBackgroundColor=default;fillColor=default;" parent="1" vertex="1">
          <mxGeometry x="140" y="380" width="150" height="30" as="geometry" />
        </mxCell>
        <mxCell id="qGL5-rrdzSUx7QEBZHQM-4" style="edgeStyle=orthogonalEdgeStyle;rounded=0;orthogonalLoop=1;jettySize=auto;html=1;entryX=0.273;entryY=-0.005;entryDx=0;entryDy=0;entryPerimeter=0;strokeWidth=2;" parent="1" source="4iuUuKdbxl8gIZwIrT_o-6" target="4iuUuKdbxl8gIZwIrT_o-7" edge="1">
          <mxGeometry relative="1" as="geometry" />
        </mxCell>
        <UserObject label="&lt;div style=&quot;forced-color-adjust: none; font-style: normal; font-variant-ligatures: normal; font-variant-caps: normal; font-weight: 400; letter-spacing: normal; orphans: 2; text-align: left; text-indent: 0px; text-transform: none; widows: 2; word-spacing: 0px; -webkit-text-stroke-width: 0px; text-decoration-thickness: initial; text-decoration-style: initial; text-decoration-color: initial; font-family: &amp;quot;Droid Sans Mono&amp;quot;, &amp;quot;monospace&amp;quot;, monospace; font-size: 14px; line-height: 19px; white-space: pre;&quot;&gt;&lt;div style=&quot;forced-color-adjust: none; line-height: 19px;&quot;&gt;&lt;div style=&quot;forced-color-adjust: none; line-height: 19px;&quot;&gt;&lt;span style=&quot;forced-color-adjust: none;&quot;&gt;&lt;div style=&quot;line-height: 19px;&quot;&gt;Qwen2Attention: 与LlamaAttention类似&lt;br&gt;&lt;/div&gt;&lt;div style=&quot;line-height: 19px;&quot;&gt;&lt;span style=&quot;&quot;&gt;1.&lt;/span&gt;rotary_emb初始化：缺少对rope_scaling[&quot;type&quot;]的判断，进而无法使用`LinearScalingRotaryEmbedding`或`DynamicNTKScalingRotaryEmbedding`，&lt;/div&gt;&lt;div style=&quot;line-height: 19px;&quot;&gt;只能使用`RotaryEmbedding`&lt;/div&gt;&lt;div style=&quot;line-height: 19px;&quot;&gt;2.forward函数中：&lt;/div&gt;&lt;div style=&quot;line-height: 19px;&quot;&gt;2.1 没有`cache_position`参数&lt;/div&gt;&lt;div style=&quot;line-height: 19px;&quot;&gt;2.2 没有对`pretraining_tp &amp;gt; 1`的判断: 关系到`q_proj`,`k_proj`,`v_proj`,`o_proj`&lt;/div&gt;&lt;div style=&quot;line-height: 19px;&quot;&gt;2.3 Llama: cos, sin = self.rotary_emb(value_states, position_ids)  &lt;/div&gt;&lt;div style=&quot;line-height: 19px;&quot;&gt;    Qwen2: cos, sin = self.rotary_emb(value_states, seq_len=kv_seq_len)&lt;/div&gt;&lt;div style=&quot;line-height: 19px;&quot;&gt;2.4 attention_mask&lt;/div&gt;&lt;/span&gt;&lt;/div&gt;&lt;/div&gt;&lt;/div&gt;" link="&lt;span style=&quot;forced-color-adjust: none; color: rgb(0, 0, 0); font-family: Helvetica; font-size: 12px; font-style: normal; font-variant-ligatures: normal; font-variant-caps: normal; font-weight: 400; letter-spacing: normal; orphans: 2; text-align: left; text-indent: 0px; text-transform: none; widows: 2; word-spacing: 0px; -webkit-text-stroke-width: 0px; white-space: normal; background-color: rgb(255, 255, 255); text-decoration-thickness: initial; text-decoration-style: initial; text-decoration-color: initial;&quot;&gt;&lt;span style=&quot;forced-color-adjust: none; font-family: &amp;quot;Droid Sans Mono&amp;quot;, &amp;quot;monospace&amp;quot;, monospace; font-size: 14px; white-space: pre;&quot;&gt;Qwen2RMSNorm():&lt;/span&gt;&lt;span style=&quot;forced-color-adjust: none; font-family: &amp;quot;Droid Sans Mono&amp;quot;, &amp;quot;monospace&amp;quot;, monospace; font-size: 14px; white-space: pre;&quot;&gt;Copied from transformers.models.llama.modeling_llama.LlamaRMSNorm with Llama-&amp;gt;Qwen2&lt;/span&gt;&lt;/span&gt;&lt;div style=&quot;forced-color-adjust: none; color: rgb(0, 0, 0); font-family: Helvetica; font-size: 12px; font-style: normal; font-variant-ligatures: normal; font-variant-caps: normal; font-weight: 400; letter-spacing: normal; orphans: 2; text-align: left; text-indent: 0px; text-transform: none; widows: 2; word-spacing: 0px; -webkit-text-stroke-width: 0px; white-space: normal; text-decoration-thickness: initial; text-decoration-style: initial; text-decoration-color: initial;&quot;&gt;&lt;span style=&quot;forced-color-adjust: none; background-color: rgb(255, 255, 255);&quot;&gt;&lt;span style=&quot;forced-color-adjust: none; font-family: &amp;quot;Droid Sans Mono&amp;quot;, &amp;quot;monospace&amp;quot;, monospace; font-size: 14px; white-space: pre;&quot;&gt;Qwen2MLP(): &lt;/span&gt;&lt;span style=&quot;forced-color-adjust: none; font-family: &amp;quot;Droid Sans Mono&amp;quot;, &amp;quot;monospace&amp;quot;, monospace; font-size: 14px; white-space: pre;&quot;&gt;Copied from transformers.models.mistral.modeling_mistral.MistralMLP with Mistral-&amp;gt;Qwen2&lt;/span&gt;&lt;/span&gt;&lt;/div&gt;&lt;div style=&quot;forced-color-adjust: none; color: rgb(0, 0, 0); font-family: Helvetica; font-size: 12px; font-style: normal; font-variant-ligatures: normal; font-variant-caps: normal; font-weight: 400; letter-spacing: normal; orphans: 2; text-align: left; text-indent: 0px; text-transform: none; widows: 2; word-spacing: 0px; -webkit-text-stroke-width: 0px; white-space: normal; text-decoration-thickness: initial; text-decoration-style: initial; text-decoration-color: initial;&quot;&gt;&lt;div style=&quot;forced-color-adjust: none; font-family: &amp;quot;Droid Sans Mono&amp;quot;, &amp;quot;monospace&amp;quot;, monospace; font-size: 14px; line-height: 19px; white-space: pre;&quot;&gt;&lt;span style=&quot;forced-color-adjust: none; background-color: rgb(255, 255, 255);&quot;&gt;Qwen2RotaryEmbedding(): Copied from transformers.models.mistral.modeling_mistral.MistralRotaryEmbedding with Mistral-&amp;gt;Qwen2&lt;/span&gt;&lt;/div&gt;&lt;/div&gt;&lt;div style=&quot;forced-color-adjust: none; color: rgb(0, 0, 0); font-style: normal; font-variant-ligatures: normal; font-variant-caps: normal; font-weight: 400; letter-spacing: normal; orphans: 2; text-align: left; text-indent: 0px; text-transform: none; widows: 2; word-spacing: 0px; -webkit-text-stroke-width: 0px; text-decoration-thickness: initial; text-decoration-style: initial; text-decoration-color: initial; font-family: &amp;quot;Droid Sans Mono&amp;quot;, &amp;quot;monospace&amp;quot;, monospace; font-size: 14px; line-height: 19px; white-space: pre;&quot;&gt;&lt;div style=&quot;forced-color-adjust: none; line-height: 19px;&quot;&gt;&lt;span style=&quot;forced-color-adjust: none; background-color: rgb(255, 255, 255);&quot;&gt;rotate_half: Copied from transformers.models.llama.modeling_llama.rotate_half&lt;/span&gt;&lt;/div&gt;&lt;div style=&quot;forced-color-adjust: none; line-height: 19px;&quot;&gt;&lt;div style=&quot;forced-color-adjust: none; line-height: 19px;&quot;&gt;&lt;span style=&quot;forced-color-adjust: none; background-color: rgb(255, 255, 255);&quot;&gt;apply_rotary_pos_emb: Copied from transformers.models.mistral.modeling_mistral.apply_rotary_pos_emb&lt;/span&gt;&lt;/div&gt;&lt;/div&gt;&lt;/div&gt;" id="aut0o0gYSm37870-cWdj-2">
          <mxCell style="text;whiteSpace=wrap;html=1;fontColor=default;labelBackgroundColor=none;" parent="1" vertex="1">
            <mxGeometry x="10" y="670" width="1050" height="180" as="geometry" />
          </mxCell>
        </UserObject>
      </root>
    </mxGraphModel>
  </diagram>
</mxfile>
